<?xml version="1.0" encoding="UTF-8"?>
<svg xmlns="http://www.w3.org/2000/svg" xmlns:xlink="http://www.w3.org/1999/xlink" width="500px" height="500px" viewBox="0 0 500 500" version="1.1">
<g id="surface1667">
<path style=" stroke:none;fill-rule:nonzero;fill:rgb(96.078431%,78.431373%,44.705882%);fill-opacity:1;" d="M 250 125 L 250 250 L 17.1875 250 C 14.121094 249.996094 11.339844 248.199219 10.078125 245.402344 C 8.816406 242.609375 9.304688 239.335938 11.328125 237.03125 L 100 135.46875 C 105.910156 128.695312 114.449219 124.796875 123.4375 124.765625 Z M 250 125 "/>
<path style=" stroke:none;fill-rule:nonzero;fill:rgb(87.843137%,40.392157%,56.078431%);fill-opacity:1;" d="M 375 250 L 250 250 L 250 17.1875 C 250.003906 14.121094 251.800781 11.339844 254.597656 10.078125 C 257.390625 8.816406 260.664062 9.304688 262.96875 11.328125 L 364.53125 100 C 371.304688 105.910156 375.203125 114.449219 375.234375 123.4375 Z M 375 250 "/>
<path style=" stroke:none;fill-rule:nonzero;fill:rgb(92.941176%,47.058824%,60%);fill-opacity:1;" d="M 372.734375 111.875 L 250 250 L 250 17.1875 C 250.003906 14.121094 251.800781 11.339844 254.597656 10.078125 C 257.390625 8.816406 260.664062 9.304688 262.96875 11.328125 L 364.53125 100 C 371.304688 105.910156 375.203125 114.449219 375.234375 123.4375 Z M 372.734375 111.875 "/>
<path style=" stroke:none;fill-rule:nonzero;fill:rgb(96.470588%,82.745098%,59.215686%);fill-opacity:1;" d="M 117.1875 132.8125 L 250 250 L 17.1875 250 C 14.121094 249.996094 11.339844 248.199219 10.078125 245.402344 C 8.816406 242.609375 9.304688 239.335938 11.328125 237.03125 L 100 135.46875 C 105.910156 128.695312 114.449219 124.796875 123.4375 124.765625 Z M 117.1875 132.8125 "/>
<path style=" stroke:none;fill-rule:nonzero;fill:rgb(48.235294%,74.509804%,92.156863%);fill-opacity:1;" d="M 488.671875 262.96875 L 400 364.53125 C 394.089844 371.304688 385.550781 375.203125 376.5625 375.234375 L 250 375.234375 L 250 250 L 482.8125 250 C 485.878906 250.003906 488.660156 251.800781 489.921875 254.597656 C 491.183594 257.390625 490.695312 260.664062 488.671875 262.96875 Z M 488.671875 262.96875 "/>
<path style=" stroke:none;fill-rule:nonzero;fill:rgb(52.156863%,79.607843%,97.254902%);fill-opacity:1;" d="M 488.671875 262.96875 L 400 364.53125 C 394.089844 371.304688 385.550781 375.203125 376.5625 375.234375 L 383.515625 371.25 L 250 250 L 482.8125 250 C 485.878906 250.003906 488.660156 251.800781 489.921875 254.597656 C 491.183594 257.390625 490.695312 260.664062 488.671875 262.96875 Z M 488.671875 262.96875 "/>
<path style=" stroke:none;fill-rule:nonzero;fill:rgb(36.470588%,73.72549%,61.568627%);fill-opacity:1;" d="M 237.03125 488.671875 L 135.46875 400 C 128.695312 394.089844 124.796875 385.550781 124.765625 376.5625 L 124.765625 250 L 250 250 L 250 482.8125 C 249.996094 485.878906 248.199219 488.660156 245.402344 489.921875 C 242.609375 491.183594 239.335938 490.695312 237.03125 488.671875 Z M 237.03125 488.671875 "/>
<path style=" stroke:none;fill-rule:nonzero;fill:rgb(44.705882%,79.215686%,68.627451%);fill-opacity:1;" d="M 237.03125 488.671875 L 135.46875 400 C 128.695312 394.089844 124.796875 385.550781 124.765625 376.5625 L 132.8125 382.8125 L 250 250 L 250 482.8125 C 249.996094 485.878906 248.199219 488.660156 245.402344 489.921875 C 242.609375 491.183594 239.335938 490.695312 237.03125 488.671875 Z M 237.03125 488.671875 "/>
<path style=" stroke:none;fill-rule:nonzero;fill:rgb(100%,100%,100%);fill-opacity:1;" d="M 250 218.75 C 232.742188 218.75 218.75 232.742188 218.75 250 C 218.75 267.257812 232.742188 281.25 250 281.25 C 267.257812 281.25 281.25 267.257812 281.25 250 C 281.25 232.742188 267.257812 218.75 250 218.75 Z M 250 218.75 "/>
<path style=" stroke:none;fill-rule:nonzero;fill:rgb(55.294118%,42.352941%,62.352941%);fill-opacity:1;" d="M 497.03125 251.328125 C 494.492188 245.757812 488.933594 242.1875 482.8125 242.1875 L 382.8125 242.1875 L 382.8125 123.515625 C 382.914062 112.121094 378.035156 101.25 369.453125 93.75 L 268.125 5.46875 C 263.515625 1.421875 256.96875 0.441406 251.378906 2.96875 C 245.789062 5.492188 242.195312 11.054688 242.1875 17.1875 L 242.1875 117.1875 L 123.59375 117.1875 C 112.171875 117.0625 101.265625 121.945312 93.75 130.546875 L 5.46875 231.875 C 1.421875 236.484375 0.441406 243.03125 2.96875 248.621094 C 5.492188 254.210938 11.054688 257.804688 17.1875 257.8125 L 117.1875 257.8125 L 117.1875 376.484375 C 117.085938 387.878906 121.964844 398.75 130.546875 406.25 L 232.109375 494.921875 C 234.9375 497.417969 238.574219 498.804688 242.34375 498.828125 C 244.605469 498.820312 246.839844 498.34375 248.90625 497.421875 C 254.515625 494.753906 258.011719 489.019531 257.8125 482.8125 L 257.8125 382.8125 L 376.40625 382.8125 C 387.828125 382.9375 398.734375 378.054688 406.25 369.453125 L 494.921875 267.890625 C 498.761719 263.238281 499.585938 256.792969 497.03125 251.328125 Z M 257.8125 17.1875 L 359.375 105.9375 C 364.375 110.410156 367.21875 116.808594 367.1875 123.515625 L 367.1875 242.1875 L 288.28125 242.1875 C 287.121094 236.523438 284.722656 231.1875 281.25 226.5625 L 319.84375 182.8125 C 321.832031 180.742188 322.527344 177.746094 321.648438 175.011719 C 320.769531 172.273438 318.460938 170.242188 315.636719 169.71875 C 312.8125 169.195312 309.925781 170.261719 308.125 172.5 L 269.53125 216.25 C 265.902344 214.101562 261.941406 212.570312 257.8125 211.71875 Z M 273.4375 250 C 273.453125 252.667969 272.976562 255.316406 272.03125 257.8125 C 272.074219 258.097656 272.074219 258.386719 272.03125 258.671875 C 270.074219 263.664062 266.421875 267.8125 261.71875 270.390625 C 260.609375 271.0625 259.429688 271.613281 258.203125 272.03125 C 253.164062 273.90625 247.617188 273.90625 242.578125 272.03125 L 241.640625 272.03125 C 236.671875 270.035156 232.535156 266.394531 229.921875 261.71875 C 229.289062 260.574219 228.765625 259.371094 228.359375 258.125 C 226.484375 253.085938 226.484375 247.539062 228.359375 242.5 C 228.316406 242.214844 228.316406 241.925781 228.359375 241.640625 C 230.300781 236.636719 233.953125 232.484375 238.671875 229.921875 C 239.765625 229.21875 240.945312 228.667969 242.1875 228.28125 C 244.664062 227.226562 247.3125 226.644531 250 226.5625 C 252.667969 226.550781 255.316406 227.027344 257.8125 227.96875 L 258.75 227.96875 C 263.71875 229.964844 267.855469 233.605469 270.46875 238.28125 C 271.101562 239.425781 271.625 240.628906 272.03125 241.875 C 273.015625 244.46875 273.492188 247.226562 273.4375 250 Z M 242.1875 132.8125 L 242.1875 211.71875 C 236.523438 212.878906 231.1875 215.277344 226.5625 218.75 L 128.984375 132.8125 Z M 17.1875 242.1875 L 39.0625 217.1875 L 39.0625 218.75 C 39.0625 223.066406 42.558594 226.5625 46.875 226.5625 C 51.191406 226.5625 54.6875 223.066406 54.6875 218.75 L 54.6875 203.125 C 54.683594 202.078125 54.472656 201.042969 54.0625 200.078125 L 105.9375 140.625 C 107.265625 139.074219 108.820312 137.730469 110.546875 136.640625 C 110.902344 137.363281 111.40625 138.003906 112.03125 138.515625 L 216.171875 230.546875 C 214.0625 234.15625 212.558594 238.089844 211.71875 242.1875 Z M 211.71875 257.8125 C 212.878906 263.476562 215.277344 268.8125 218.75 273.4375 L 132.8125 371.015625 L 132.8125 257.8125 Z M 242.1875 482.8125 L 140.625 394.0625 C 139.074219 392.734375 137.730469 391.179688 136.640625 389.453125 C 137.363281 389.097656 138.003906 388.59375 138.515625 387.96875 L 230.546875 283.828125 C 234.152344 285.953125 238.085938 287.457031 242.1875 288.28125 Z M 257.8125 367.1875 L 257.8125 288.28125 C 263.488281 287.160156 268.835938 284.757812 273.4375 281.25 L 371.015625 367.1875 Z M 482.8125 257.8125 L 460.9375 282.8125 L 460.9375 281.25 C 460.9375 276.933594 457.441406 273.4375 453.125 273.4375 C 448.808594 273.4375 445.3125 276.933594 445.3125 281.25 L 445.3125 296.875 C 445.316406 297.921875 445.527344 298.957031 445.9375 299.921875 L 394.0625 359.375 C 392.707031 360.898438 391.15625 362.238281 389.453125 363.359375 C 389.097656 362.636719 388.59375 361.996094 387.96875 361.484375 L 283.90625 269.453125 C 285.960938 265.824219 287.433594 261.894531 288.28125 257.8125 Z M 482.8125 257.8125 "/>
<path style=" stroke:none;fill-rule:nonzero;fill:rgb(55.294118%,42.352941%,62.352941%);fill-opacity:1;" d="M 334.0625 162.5 C 336.304688 162.496094 338.441406 161.53125 339.921875 159.84375 L 355.546875 142.1875 C 358.394531 138.929688 358.0625 133.980469 354.804688 131.132812 C 351.546875 128.285156 346.597656 128.617188 343.75 131.875 L 328.125 149.53125 C 326.101562 151.835938 325.613281 155.109375 326.875 157.902344 C 328.136719 160.699219 330.917969 162.496094 333.984375 162.5 Z M 335.9375 273.4375 C 331.621094 273.4375 328.125 276.933594 328.125 281.25 L 328.125 296.875 C 328.125 301.191406 331.621094 304.6875 335.9375 304.6875 C 340.253906 304.6875 343.75 301.191406 343.75 296.875 L 343.75 281.25 C 343.75 276.933594 340.253906 273.4375 335.9375 273.4375 Z M 375 273.4375 C 370.683594 273.4375 367.1875 276.933594 367.1875 281.25 L 367.1875 296.875 C 367.1875 301.191406 370.683594 304.6875 375 304.6875 C 379.316406 304.6875 382.8125 301.191406 382.8125 296.875 L 382.8125 281.25 C 382.8125 276.933594 379.316406 273.4375 375 273.4375 Z M 414.0625 304.6875 C 418.378906 304.6875 421.875 301.191406 421.875 296.875 L 421.875 281.25 C 421.875 276.933594 418.378906 273.4375 414.0625 273.4375 C 409.746094 273.4375 406.25 276.933594 406.25 281.25 L 406.25 296.875 C 406.25 301.191406 409.746094 304.6875 414.0625 304.6875 Z M 85.9375 195.3125 C 81.621094 195.3125 78.125 198.808594 78.125 203.125 L 78.125 218.75 C 78.125 223.066406 81.621094 226.5625 85.9375 226.5625 C 90.253906 226.5625 93.75 223.066406 93.75 218.75 L 93.75 203.125 C 93.75 198.808594 90.253906 195.3125 85.9375 195.3125 Z M 125 195.3125 C 120.683594 195.3125 117.1875 198.808594 117.1875 203.125 L 117.1875 218.75 C 117.1875 223.066406 120.683594 226.5625 125 226.5625 C 129.316406 226.5625 132.8125 223.066406 132.8125 218.75 L 132.8125 203.125 C 132.8125 198.808594 129.316406 195.3125 125 195.3125 Z M 164.0625 195.3125 C 159.746094 195.3125 156.25 198.808594 156.25 203.125 L 156.25 218.75 C 156.25 223.066406 159.746094 226.5625 164.0625 226.5625 C 168.378906 226.5625 171.875 223.066406 171.875 218.75 L 171.875 203.125 C 171.875 198.808594 168.378906 195.3125 164.0625 195.3125 Z M 164.0625 195.3125 "/>
</g>
</svg>
